<?xml version="1.0" encoding="utf-8"?>
<!-- Generator: Adobe Illustrator 16.0.0, SVG Export Plug-In . SVG Version: 6.00 Build 0)  -->
<!DOCTYPE svg PUBLIC "-//W3C//DTD SVG 1.1//EN" "http://www.w3.org/Graphics/SVG/1.1/DTD/svg11.dtd">
<svg version="1.1" id="Capa_1" xmlns="http://www.w3.org/2000/svg" xmlns:xlink="http://www.w3.org/1999/xlink" x="0px" y="0px"
	 width="266.167px" height="247.254px" viewBox="0 0 266.167 247.254" enable-background="new 0 0 266.167 247.254"
	 xml:space="preserve">
<g>
	<path fill="#c39f76" d="M265.105,26.005v-0.779c-0.52-3.776-3.383-6.377-7.158-6.377h-28.111c0-5.729,0.394-11.453,0.394-11.453
		c0.08-2.34-0.78-4.165-2.215-5.336c-1.433-1.434-3.122-2.082-5.075-2.082H41.777c-2.213,0-3.904,0.648-5.336,2.082
		c-1.563,1.561-2.213,3.385-1.951,5.336c0,3.384,0.129,7.156,0.26,11.453H7.55c-3.646,0-6.638,2.731-7.158,6.377v0.779
		C0.391,30.048,0,32.773,0,34.335c0,2.213,0.218,6.381,0.65,12.233c0.478,6.38,1.418,12.108,2.604,17.178
		c1.158,4.952,3.176,10.58,6.115,16.79c2.916,6.156,6.509,11.322,10.805,15.618c6.115,6.116,13.013,10.412,20.693,12.625
		c0.648,5.725,1.724,11.018,2.992,15.879c4.979,19.088,14.577,35.139,29.543,47.764c14.967,12.621,32.275,19.652,51.797,21.344
		v37.87v1.304h-23.817c-4.034,0-7.158,3.123-7.158,7.157c0,4.032,3.124,7.157,7.158,7.157h62.731c4.035,0,7.157-3.125,7.157-7.157
		c0-4.034-3.122-7.157-7.157-7.157h-24.855c0.13-0.391,0.258-0.779,0.258-1.304v-37.87c19.521-1.689,36.701-8.723,51.67-21.344
		c14.966-12.625,24.702-28.674,29.673-47.764c0.759-2.91,1.688-8.072,2.603-15.619c8.461-2.343,15.916-6.599,22.125-12.885
		c4.203-4.256,7.682-9.371,10.543-15.486c2.861-6.117,4.959-11.84,6.115-16.921c1.188-5.2,2.127-10.798,2.604-16.917
		c0.433-5.594,0.521-9.631,0.521-12.363v-0.653C265.367,31.212,265.105,28.61,265.105,26.005z M30.324,86.001
		c-4.451-4.527-8.019-10.384-10.541-17.699c-2.553-7.391-3.994-13.799-4.557-19.133c-0.479-4.56-0.781-9.109-0.781-13.662
		c0.131-0.653,0.131-1.434,0.131-2.213h20.693c1.041,21.996,2.344,41.776,4.034,59.475C36.31,91.208,33.289,89.021,30.324,86.001z
		 M212.136,78.192c-1.497,21.601-3.252,35.922-5.207,42.817l-0.26,0.263c-4.032,17.177-13.017,31.233-26.938,42.035
		c-13.928,10.803-29.676,16.271-47.375,16.271c-17.701,0-33.576-5.468-47.504-16.271c-13.924-10.802-22.904-24.858-27.201-42.036
		v-0.262c-3.643-12.494-6.504-48.021-8.457-106.588h166.324C214.871,35.376,213.634,56.585,212.136,78.192z M250.919,35.507
		c0,4.553-0.229,9.111-0.648,13.662c-0.494,5.34-2.121,11.699-4.688,19.133c-2.51,7.274-5.959,13.172-10.412,17.699
		c-3.228,3.282-6.508,5.725-9.76,7.289c1.17-12.885,2.471-32.926,3.645-59.996h21.863V35.507L250.919,35.507z"/>
</g>
</svg>
